# xmcd
#
# Track frame offsets:
# 150
# 15463
# 35369
# 57098
# 71500
# 92651
# 111162
# 132819
# 148712
# 170051
# 193525
#
# Disc length: 3118 seconds
#
# Revision: 0
# Processed by: cddbd v1.5.1PL2 Copyright (c) Steve Scherf et al.
# Submitted via: CoinsHifi v1.6b contact@coinshifi.com
#
DISCID=920c2c0b
DTITLE=Clogero - En Apesanteur
DYEAR=2002
DGENRE=Pop
TTITLE0=En Apesanteur
TTITLE1=Aussi Libre Que Moi
TTITLE2=Tien An Men
TTITLE3=Prouver L'amour
TTITLE4=Prendre Racine
TTITLE5=A La Gueule Des Noyés
TTITLE6=Une Dernière Chance
TTITLE7=Juste Un Peu De Silence
TTITLE8=Je Vis Où Tu M'as Laissé
TTITLE9=Partir Ou Rester
TTITLE10=Le Plus Jour
EXTD=
EXTT0=
EXTT1=
EXTT2=
EXTT3=
EXTT4=
EXTT5=
EXTT6=
EXTT7=
EXTT8=
EXTT9=
EXTT10=
PLAYORDER=
